<?xml version="1.0" standalone="no"?>
<!DOCTYPE svg PUBLIC "-//W3C//DTD SVG 20010904//EN"
 "http://www.w3.org/TR/2001/REC-SVG-20010904/DTD/svg10.dtd">
<svg version="1.0" xmlns="http://www.w3.org/2000/svg"
 width="297.000000pt" height="300.000000pt" viewBox="0 0 297.000000 300.000000"
 preserveAspectRatio="xMidYMid meet">
<metadata>
Created by potrace 1.10, written by Peter Selinger 2001-2011
</metadata>
<g transform="translate(0.000000,300.000000) scale(0.100000,-0.100000)"
fill="#000000" stroke="none">
<path d="M1569 2763 c-13 -16 -12 -17 4 -4 16 13 21 21 13 21 -2 0 -10 -8 -17
-17z"/>
<path d="M1380 2760 c0 -5 4 -10 9 -10 6 0 13 5 16 10 3 6 -1 10 -9 10 -9 0
-16 -4 -16 -10z"/>
<path d="M1602 2755 c10 -11 48 -14 48 -4 0 5 -12 9 -27 9 -14 0 -24 -2 -21
-5z"/>
<path d="M1170 2742 c0 -5 7 -9 15 -9 8 0 12 4 9 9 -3 4 -9 8 -15 8 -5 0 -9
-4 -9 -8z"/>
<path d="M1120 2720 c-12 -12 -25 -18 -30 -15 -4 3 -10 -1 -13 -7 -3 -10 -7
-10 -20 0 -14 12 -26 8 -82 -23 -41 -23 -73 -35 -86 -32 -11 3 -36 -4 -54 -15
-19 -11 -39 -17 -44 -14 -5 3 -17 3 -26 0 -13 -5 -14 -9 -4 -15 9 -5 5 -10
-14 -14 -15 -4 -27 -13 -27 -20 0 -7 -2 -19 -3 -27 -2 -7 -2 -10 0 -5 9 14 19
7 20 -14 3 -31 10 -34 31 -16 10 10 22 17 26 17 4 0 14 7 23 16 9 8 23 12 31
9 9 -3 13 -3 9 1 -4 4 1 13 11 20 11 10 2 8 -30 -3 -26 -9 -45 -20 -42 -24 4
-7 -20 -19 -40 -19 -7 0 -13 7 -13 15 0 8 7 15 14 15 8 0 12 4 9 9 -3 5 15 19
39 32 25 13 45 26 45 30 0 3 17 6 37 6 34 1 36 0 16 -10 -17 -10 -20 -16 -11
-30 8 -15 18 -18 47 -13 l36 5 -35 -13 c-19 -7 -39 -11 -43 -9 -5 3 -17 -4
-28 -16 -26 -28 -13 -27 54 5 39 17 54 29 50 40 -3 7 1 14 8 14 7 0 10 3 7 6
-4 3 -20 -2 -37 -10 -38 -20 -48 -20 -48 -1 0 11 6 13 20 9 13 -4 17 -2 13 5
-6 10 13 16 37 12 4 0 7 4 7 9 0 6 4 10 10 10 9 0 75 29 160 69 24 11 24 11 2
7 -19 -4 -21 -2 -11 10 18 21 2 17 -21 -6z"/>
<path d="M1375 2730 c-8 -13 5 -13 25 0 13 8 13 10 -2 10 -9 0 -20 -4 -23 -10z"/>
<path d="M1680 2730 c20 -13 33 -13 25 0 -3 6 -14 10 -23 10 -15 0 -15 -2 -2
-10z"/>
<path d="M1790 2734 c0 -2 9 -8 20 -14 11 -6 20 -7 20 -2 0 6 -9 12 -20 15
-11 3 -20 3 -20 1z"/>
<path d="M1190 2710 c-13 -8 -12 -10 3 -10 9 0 17 5 17 10 0 12 -1 12 -20 0z"/>
<path d="M1515 2699 c4 -5 22 -9 42 -9 45 0 40 5 -10 13 -22 3 -35 2 -32 -4z"/>
<path d="M1898 2703 c7 -3 16 -2 19 1 4 3 -2 6 -13 5 -11 0 -14 -3 -6 -6z"/>
<path d="M1218 2686 c-20 -6 -40 -15 -45 -20 -4 -5 3 -5 17 -1 44 14 70 24 70
30 0 3 -1 5 -2 4 -2 -1 -20 -6 -40 -13z"/>
<path d="M900 2674 l-25 -15 25 7 c14 3 32 10 40 15 13 7 13 8 0 8 -8 0 -26
-6 -40 -15z"/>
<path d="M1315 2680 c-3 -5 -2 -10 4 -10 5 0 13 5 16 10 3 6 2 10 -4 10 -5 0
-13 -4 -16 -10z"/>
<path d="M788 2650 c-27 -17 -54 -30 -62 -30 -18 0 -114 -86 -136 -123 -9 -15
-46 -52 -81 -83 -35 -30 -64 -61 -64 -67 0 -7 -4 -18 -8 -24 -19 -31 5 -9 28
24 14 21 25 35 25 32 0 -3 36 30 80 73 43 43 87 78 96 78 10 0 14 3 11 7 -4 4
5 20 20 36 16 17 22 26 14 22 -10 -6 -12 -4 -6 4 5 9 10 10 18 2 13 -13 30
-15 23 -2 -4 5 16 23 44 40 27 17 50 33 50 36 0 8 -1 7 -52 -25z"/>
<path d="M1430 2658 c-13 -5 -36 -8 -50 -7 -27 3 -89 -6 -155 -21 -22 -5 -53
-12 -69 -15 -22 -5 -26 -9 -17 -18 8 -8 14 -8 19 -2 4 6 39 11 77 13 39 2 95
10 126 18 33 8 103 14 165 13 141 0 154 -1 154 -13 0 -6 5 -5 12 2 6 6 9 14 7
17 -3 3 -55 7 -115 11 -60 3 -113 7 -119 8 -5 2 -21 -1 -35 -6z"/>
<path d="M1820 2653 c0 -5 18 -16 40 -25 22 -9 40 -12 40 -7 0 5 -2 9 -4 9 -2
0 -20 7 -40 15 -20 8 -36 12 -36 8z"/>
<path d="M1910 2649 c0 -5 9 -9 19 -9 14 0 18 -5 14 -20 -3 -12 0 -20 7 -20 7
0 10 7 6 16 -5 12 -2 15 11 10 16 -6 17 -6 2 9 -18 18 -59 28 -59 14z"/>
<path d="M1055 2640 c-3 -5 -1 -10 4 -10 6 0 11 5 11 10 0 6 -2 10 -4 10 -3 0
-8 -4 -11 -10z"/>
<path d="M1100 2630 c-13 -9 -13 -10 0 -10 8 0 22 5 30 10 13 9 13 10 0 10 -8
0 -22 -5 -30 -10z"/>
<path d="M1426 2620 c11 -4 36 -5 55 0 31 7 29 8 -21 8 -39 1 -49 -2 -34 -8z"/>
<path d="M1065 2610 c-4 -6 -3 -9 2 -8 4 1 18 -3 30 -10 19 -11 22 -10 17 3
-4 9 -9 13 -12 11 -3 -3 -11 -1 -18 5 -8 7 -14 7 -19 -1z"/>
<path d="M1585 2606 c17 -8 32 -12 34 -10 7 7 -3 12 -34 18 l-30 6 30 -14z"/>
<path d="M1370 2602 c0 -5 14 -7 30 -4 17 2 30 6 30 8 0 2 -13 4 -30 4 -16 0
-30 -4 -30 -8z"/>
<path d="M1630 2598 c0 -4 16 -8 35 -8 19 0 35 2 35 4 0 2 -16 6 -35 8 -19 2
-35 0 -35 -4z"/>
<path d="M2094 2596 c15 -12 16 -16 5 -16 -10 -1 -7 -6 8 -19 12 -10 20 -20
18 -22 -2 -2 8 -5 21 -5 33 -2 30 9 -8 38 -38 28 -72 47 -44 24z"/>
<path d="M830 2591 c-14 -4 -20 -10 -15 -13 10 -6 55 7 55 17 0 6 -7 5 -40 -4z"/>
<path d="M1833 2594 c13 -23 -21 -38 -60 -26 -20 6 -32 7 -27 3 20 -18 128
-46 119 -30 -4 5 -13 9 -21 9 -17 0 -19 17 -1 23 9 3 9 8 -2 18 -8 8 -11 9 -8
3z"/>
<path d="M995 2580 c-3 -6 1 -7 9 -4 18 7 21 14 7 14 -6 0 -13 -4 -16 -10z"/>
<path d="M1182 2573 c-24 -8 -41 -17 -38 -20 2 -3 22 1 43 8 21 7 44 12 51 11
6 -2 12 2 12 8 0 13 -16 12 -68 -7z"/>
<path d="M1416 2581 c-3 -5 -25 -6 -50 -4 -26 3 -46 1 -50 -6 -5 -7 2 -9 22
-5 16 3 32 2 36 -4 3 -5 -13 -12 -37 -15 -55 -8 -204 -55 -212 -67 -6 -10 32
0 85 23 19 8 73 23 120 32 47 9 89 21 95 26 5 5 38 10 75 10 61 1 62 2 25 10
-54 11 -103 11 -109 0z"/>
<path d="M1020 2550 c-36 -16 -59 -29 -52 -30 15 0 113 39 127 52 17 15 -8 7
-75 -22z"/>
<path d="M1580 2570 c0 -6 -34 -11 -77 -12 l-78 -1 96 -6 c63 -4 102 -11 114
-21 11 -9 16 -10 11 -2 -8 14 -4 14 46 3 22 -5 36 -5 32 0 -3 5 3 9 12 9 10 0
14 -3 10 -7 -9 -9 162 -76 196 -76 15 0 25 -3 23 -8 -8 -12 9 -19 24 -9 10 6
2 14 -29 30 -23 12 -39 17 -35 11 8 -13 -9 -14 -33 -2 -9 5 -26 12 -37 16 -16
5 -17 8 -5 16 12 9 12 10 -3 5 -22 -7 -78 4 -72 14 3 4 -6 11 -19 14 -13 3
-32 9 -43 12 -15 5 -16 4 -3 -6 12 -9 8 -11 -19 -6 -18 3 -48 6 -65 7 -25 0
-27 2 -12 8 18 7 18 8 2 14 -25 10 -36 9 -36 -3z"/>
<path d="M1887 2559 c4 -13 8 -18 11 -10 2 7 -1 18 -6 23 -8 8 -9 4 -5 -13z"/>
<path d="M2040 2555 c7 -8 17 -15 22 -15 6 0 5 7 -2 15 -7 8 -17 15 -22 15 -6
0 -5 -7 2 -15z"/>
<path d="M1220 2550 c-11 -8 -7 -9 15 -4 37 8 45 14 19 14 -10 0 -26 -5 -34
-10z"/>
<path d="M1030 2499 c-90 -48 -185 -113 -185 -126 0 -6 4 -15 9 -20 5 -4 6 -3
2 4 -11 20 44 50 98 52 19 1 19 2 2 14 -16 12 -14 13 18 13 20 0 42 6 49 13
10 12 8 13 -8 6 -77 -29 -66 -14 30 40 74 42 61 45 -15 4z"/>
<path d="M1910 2523 c8 -3 22 -12 30 -19 11 -9 20 -10 30 -3 13 9 12 10 -2 6
-9 -3 -22 1 -28 9 -7 8 -20 14 -29 13 -13 0 -14 -1 -1 -6z"/>
<path d="M667 2490 c-3 -11 -2 -20 3 -20 4 0 10 9 13 20 3 11 2 20 -3 20 -4 0
-10 -9 -13 -20z"/>
<path d="M849 2506 c-2 -3 -16 -7 -31 -10 -34 -6 -77 -34 -107 -69 -13 -15
-42 -39 -66 -53 -42 -24 -82 -70 -77 -87 1 -5 -2 -6 -7 -2 -6 3 -26 -18 -46
-47 -23 -33 -34 -44 -30 -28 13 44 45 88 103 140 31 27 53 50 49 50 -14 0 -57
-24 -57 -32 0 -5 -4 -7 -9 -4 -4 3 -16 -3 -26 -14 -10 -11 -21 -17 -26 -14 -4
2 -13 -6 -20 -18 -11 -21 -11 -22 4 -10 30 25 35 7 6 -21 -18 -17 -26 -21 -22
-11 11 28 -15 7 -32 -27 -9 -16 -20 -27 -25 -24 -5 3 -12 0 -16 -6 -5 -8 -3
-9 6 -4 10 6 12 4 7 -9 -4 -10 -7 -21 -7 -24 0 -4 -5 0 -11 8 -9 13 -10 13 -6
0 2 -8 -2 -28 -10 -43 -8 -16 -12 -31 -9 -35 7 -7 6 -8 44 59 18 31 40 63 49
70 13 11 12 5 -5 -24 -12 -21 -17 -35 -11 -31 7 4 10 1 7 -7 -3 -8 -10 -13
-16 -12 -5 1 -13 -4 -16 -13 -3 -8 -1 -12 4 -9 6 3 7 -1 4 -9 -3 -9 -11 -13
-17 -9 -6 4 -8 0 -4 -11 4 -10 3 -15 -3 -11 -9 6 -14 -11 -13 -43 1 -7 -2 -11
-5 -8 -3 4 -13 -6 -23 -21 -13 -20 -15 -31 -7 -40 6 -7 6 -13 1 -13 -14 0 -33
-62 -27 -90 5 -20 4 -22 -6 -10 -9 12 -10 8 -5 -20 l6 -35 -16 25 c-14 23 -15
23 -10 3 4 -16 0 -26 -14 -35 -12 -7 -21 -23 -21 -36 0 -12 -7 -25 -15 -28 -9
-4 -15 -19 -15 -36 0 -16 -5 -39 -12 -51 -20 -37 -37 -126 -26 -133 7 -4 6 -9
-2 -14 -7 -5 -13 -49 -15 -126 l-4 -119 9 108 c5 60 12 112 16 115 4 4 4 -12
1 -35 -3 -24 -1 -43 4 -43 5 0 8 -17 8 -37 l-2 -38 -7 35 -7 35 -2 -36 c0 -20
2 -39 6 -43 4 -4 8 -37 10 -74 2 -47 0 -63 -7 -52 -6 9 -10 10 -10 3 0 -6 5
-15 10 -18 6 -4 8 -10 6 -14 -3 -4 4 -32 15 -61 11 -30 24 -72 29 -94 19 -94
24 -105 36 -94 3 4 0 16 -6 28 -6 12 -9 28 -6 36 3 8 2 12 -4 9 -5 -3 -8 4 -7
15 2 23 19 10 22 -17 1 -10 5 -26 9 -35 14 -41 15 -48 3 -48 -9 0 -9 -2 0 -8
7 -4 24 -34 38 -67 17 -38 21 -54 11 -46 -8 7 -20 28 -26 47 -16 47 -22 38 -9
-10 10 -35 69 -130 69 -111 0 12 29 -27 30 -39 0 -5 -10 -1 -22 10 -23 19 -23
19 -5 -2 9 -11 14 -23 11 -27 -3 -3 18 -40 46 -82 29 -41 55 -74 57 -72 2 3
-19 37 -46 77 -45 64 -58 102 -30 84 5 -3 7 -9 4 -14 -3 -5 4 -7 16 -5 14 3
19 0 16 -9 -3 -8 5 -24 19 -37 13 -12 24 -19 24 -15 0 4 11 -6 25 -21 13 -15
25 -23 25 -17 0 6 -9 19 -20 29 -11 10 -20 23 -20 28 0 6 11 0 25 -13 14 -13
25 -28 25 -33 0 -5 11 -18 25 -29 14 -11 22 -25 18 -31 -4 -7 0 -8 11 -4 10 4
15 3 11 -3 -5 -8 17 -25 40 -30 6 -1 9 -6 7 -12 -1 -5 2 -7 8 -3 5 3 10 -1 10
-11 0 -15 -2 -15 -27 2 -70 45 -103 72 -91 76 9 3 9 6 0 12 -7 4 -12 2 -12 -4
0 -6 -5 -8 -12 -4 -7 4 4 -12 24 -37 20 -24 41 -43 47 -41 6 1 11 -2 11 -7 0
-5 15 -14 33 -22 17 -7 43 -21 56 -31 29 -22 45 -23 38 -3 -4 8 -1 17 4 21 7
4 10 -3 9 -17 -1 -13 -1 -27 0 -31 1 -5 3 -14 4 -20 0 -8 16 -13 37 -14 34 -1
180 -73 149 -74 -28 -1 55 -37 100 -43 l45 -6 -35 14 c-19 7 -46 14 -60 15
l-25 1 25 10 c16 7 32 7 45 0 11 -5 34 -14 50 -19 17 -6 39 -13 50 -17 14 -4
12 -2 -5 9 -14 9 -42 20 -64 26 -21 6 -36 13 -34 16 3 2 52 -7 111 -21 58 -13
131 -28 162 -31 31 -4 52 -10 47 -13 -17 -10 178 -10 206 0 14 5 28 6 31 1 3
-5 17 -6 31 -2 21 5 16 8 -25 14 -33 5 -51 4 -53 -3 -5 -16 -45 -14 -68 4 -25
19 -43 19 -66 -2 -18 -16 -18 -16 -12 0 9 26 68 36 84 15 3 -4 23 -3 45 2 22
5 64 10 93 10 28 0 52 4 52 8 0 12 103 40 163 45 26 3 46 2 43 -1 -3 -3 -1
-10 4 -17 7 -8 5 -12 -5 -12 -8 0 -15 4 -15 9 0 4 -15 8 -32 8 l-33 -1 40 -15
c47 -18 44 -18 114 -4 30 6 66 8 80 5 23 -6 18 -10 -38 -25 -35 -10 -67 -23
-71 -30 -4 -6 -11 -12 -16 -11 -5 0 -18 -2 -29 -5 -11 -3 -33 -6 -50 -8 -16
-2 -34 -4 -38 -5 -5 0 -6 -5 -3 -10 4 -5 27 -4 56 4 28 7 51 13 53 13 4 -2 83
25 121 41 72 30 131 61 106 55 -21 -4 -22 -3 -7 6 9 6 26 13 37 15 17 3 80 44
80 52 0 2 -8 -1 -19 -6 -10 -6 -21 -8 -24 -5 -3 3 -16 -2 -29 -10 -14 -9 -28
-13 -33 -9 -4 5 -5 3 -2 -4 7 -11 -46 -36 -56 -26 -3 2 -15 0 -26 -7 -13 -7
-21 -7 -21 -1 0 6 -8 7 -17 4 -28 -10 24 38 82 77 28 18 79 56 115 83 l65 49
-50 -47 c-27 -26 -50 -52 -50 -58 0 -6 -7 -11 -15 -12 -23 -4 -90 -46 -90 -57
0 -5 13 0 29 11 37 27 79 42 83 31 2 -4 12 4 23 18 15 21 15 24 2 13 -9 -7
-17 -9 -17 -4 0 5 32 36 72 68 39 33 89 84 111 113 30 40 43 50 50 40 6 -9 7
-8 3 6 -4 10 -1 26 6 34 11 13 11 14 -2 7 -11 -6 -10 -2 2 11 47 51 69 85 85
135 10 30 22 53 26 51 11 -4 37 30 31 40 -3 5 3 21 12 37 15 26 16 32 3 47 -9
11 -9 15 -1 10 11 -7 16 4 13 31 -1 6 8 29 19 51 22 41 24 50 36 129 4 26 10
50 15 53 4 3 10 19 14 35 l6 30 -15 -30 c-14 -29 -15 -28 -9 28 6 58 8 358 4
406 -2 18 -5 21 -12 10 -6 -10 -9 -7 -9 11 0 36 -46 174 -80 242 -16 31 -52
88 -79 127 -28 39 -51 76 -51 81 0 6 -5 10 -10 10 -9 0 38 -98 60 -125 7 -8 5
-23 -6 -45 -16 -30 -16 -35 0 -62 10 -16 15 -35 13 -43 -3 -7 5 -38 17 -70 17
-39 25 -51 30 -40 9 23 8 27 -6 19 -7 -5 -8 -3 -3 6 4 7 2 16 -5 20 -7 4 -9
13 -5 20 6 9 9 9 16 -1 6 -10 9 -7 9 10 0 24 0 24 -22 5 -20 -18 -21 -18 -15
-1 4 11 -1 37 -11 60 -19 44 -16 92 5 79 19 -12 53 -94 53 -130 0 -20 4 -31
10 -27 6 3 10 -1 10 -11 0 -13 -3 -14 -15 -4 -16 13 -20 3 -9 -24 3 -9 11 -13
17 -9 6 3 7 1 3 -6 -4 -6 -11 -9 -16 -6 -4 3 -10 -4 -13 -15 -3 -10 -1 -20 3
-22 13 -5 27 -120 19 -158 -4 -19 -3 -55 2 -80 12 -50 5 -138 -16 -215 -15
-57 -29 -175 -15 -135 l8 25 1 -27 c1 -16 -3 -28 -9 -28 -5 0 -10 -5 -10 -11
0 -5 5 -7 12 -3 6 4 4 -3 -5 -17 -9 -13 -17 -30 -17 -39 0 -8 -7 -28 -15 -44
-9 -16 -13 -36 -10 -43 2 -8 1 -12 -4 -9 -5 3 -19 -17 -32 -44 -13 -27 -27
-46 -33 -43 -5 3 -6 2 -3 -4 4 -6 -18 -55 -48 -109 -30 -54 -55 -102 -55 -105
0 -23 72 17 76 43 1 4 2 13 3 19 0 5 7 7 14 3 6 -4 9 -4 5 1 -4 4 -2 17 4 29
22 41 -19 -3 -47 -51 -15 -24 -29 -43 -31 -40 -3 2 28 68 68 145 72 140 103
184 55 78 -28 -60 -28 -77 -2 -25 9 17 19 29 21 26 9 -8 -36 -88 -45 -82 -5 3
-12 -2 -15 -11 -3 -8 -2 -12 4 -9 6 3 10 0 10 -7 0 -9 3 -9 10 2 19 29 11 -13
-10 -54 -15 -31 -17 -43 -8 -60 9 -18 9 -19 -3 -10 -23 17 -40 11 -67 -26
l-25 -35 30 34 c22 24 32 30 38 21 5 -8 -8 -27 -35 -54 -23 -22 -40 -36 -36
-29 3 6 2 13 -4 15 -6 2 -4 14 4 30 8 15 11 30 6 33 -12 7 -70 -56 -70 -75 0
-27 -159 -168 -173 -154 -3 3 -15 1 -26 -6 -12 -6 -27 -8 -33 -4 -7 5 -3 11
13 17 13 6 27 10 31 9 3 -1 12 5 18 13 7 8 18 15 24 15 12 1 51 50 39 50 -4 0
-24 -14 -43 -30 -47 -40 -63 -38 -23 3 49 49 63 65 63 73 0 4 -12 -4 -27 -18
-16 -14 -36 -28 -45 -31 -10 -4 -15 -12 -12 -21 3 -8 0 -17 -5 -21 -6 -3 -9
-11 -5 -16 3 -6 -6 -8 -23 -4 -23 4 -24 4 -8 -4 15 -7 16 -10 5 -11 -8 -2 -21
-2 -27 -1 -7 1 -13 -3 -13 -9 0 -6 4 -9 9 -6 5 3 15 -1 22 -10 11 -14 10 -15
-7 -12 -10 1 -18 -2 -17 -8 1 -7 -6 -10 -16 -7 -10 3 -22 0 -25 -6 -4 -6 -15
-11 -24 -11 -10 1 -3 9 18 20 50 27 32 24 -34 -6 -31 -14 -61 -22 -67 -18 -7
4 -9 3 -6 -3 6 -9 -82 -48 -150 -68 -13 -3 -23 -11 -23 -16 0 -5 -7 -9 -16 -9
-8 0 -12 4 -9 10 4 6 -2 7 -17 1 -13 -5 -26 -9 -30 -10 -17 -2 -12 -14 10 -22
13 -5 21 -5 18 0 -3 5 13 12 37 16 48 9 45 8 111 29 27 8 53 13 58 10 5 -4 15
1 21 10 7 9 22 18 35 19 12 0 22 5 22 10 0 4 4 6 9 2 6 -3 45 13 87 35 87 45
109 47 39 4 -25 -16 -45 -33 -45 -37 0 -9 82 44 116 75 12 11 28 20 35 22 22
3 40 17 34 26 -3 4 3 11 13 15 25 12 42 14 42 7 0 -9 -139 -111 -180 -133 -16
-9 -26 -20 -22 -24 4 -4 -7 -5 -24 -2 -24 5 -38 1 -55 -14 -12 -10 -40 -22
-61 -25 -21 -4 -38 -10 -38 -15 0 -5 -9 -9 -21 -9 -14 0 -19 5 -16 14 4 10 0
12 -14 9 -10 -3 -16 -9 -13 -14 3 -5 -2 -6 -10 -3 -8 3 -32 -4 -54 -15 -21
-11 -50 -22 -63 -24 -13 -2 -31 -7 -39 -10 -8 -3 -49 -8 -91 -10 -65 -3 -78 0
-88 15 -9 14 -8 18 2 18 7 0 18 -5 25 -12 7 -7 12 -8 12 -2 0 6 -4 14 -10 20
-6 6 6 10 36 12 26 1 52 6 58 11 6 4 35 14 64 22 29 7 52 18 52 26 0 18 -33
33 -61 27 -13 -3 26 13 86 34 148 53 165 61 141 61 -20 1 -20 1 0 17 10 8 13
13 7 9 -7 -3 -47 -15 -90 -26 -43 -11 -82 -24 -88 -29 -5 -4 -35 -13 -65 -19
-82 -17 -92 -19 -125 -30 -21 -6 -24 -10 -10 -10 26 -1 151 30 249 63 43 14
86 26 95 25 9 0 -54 -24 -139 -54 l-155 -53 64 2 c40 0 66 -3 68 -10 2 -7 -7
-12 -23 -12 -14 0 -29 -4 -33 -9 -13 -21 -159 -47 -177 -33 -8 8 -14 8 -19 0
-9 -15 -68 -12 -90 4 -12 8 -32 12 -51 9 -37 -6 -143 14 -164 32 -19 16 -58
25 -76 18 -25 -9 -15 -21 26 -28 25 -4 38 -11 33 -17 -3 -7 -1 -8 5 -4 6 4 29
2 49 -3 21 -6 67 -13 103 -17 80 -8 90 -14 22 -14 -27 0 -59 -3 -69 -6 -15 -5
-15 -4 -3 5 13 9 13 11 0 11 -8 0 -31 -5 -50 -11 -39 -13 -152 -20 -145 -9 2
3 -14 5 -36 4 -21 -1 -37 2 -34 6 3 5 -17 16 -45 25 -28 9 -48 21 -45 26 4 5
-2 6 -11 2 -12 -5 -15 -3 -9 6 6 10 3 11 -15 1 -17 -9 -21 -9 -15 0 4 7 -1 13
-14 17 -12 3 -21 13 -21 25 0 10 5 16 10 13 6 -4 8 -11 5 -16 -4 -5 1 -9 9 -9
9 0 16 -5 16 -11 0 -5 5 -7 11 -3 6 3 23 -2 37 -13 15 -11 38 -22 52 -25 14
-3 33 -9 43 -13 13 -5 16 -3 11 8 -3 9 -12 13 -20 10 -8 -3 -14 0 -14 6 0 6
-8 8 -17 4 -10 -3 -15 -3 -11 2 4 4 -13 18 -37 30 -25 11 -54 31 -66 44 -15
16 -28 21 -46 17 -15 -4 -32 0 -46 10 -20 15 -21 15 -2 10 16 -5 21 -1 21 13
0 15 -4 17 -18 10 -11 -6 -19 -5 -24 3 -5 7 -2 9 7 4 8 -4 2 2 -14 14 -15 12
-25 26 -21 31 3 5 -1 9 -9 9 -15 0 -57 41 -57 55 0 5 15 -4 33 -21 l32 -29
-29 32 c-16 18 -34 30 -39 26 -6 -3 -7 -1 -4 4 4 6 0 16 -8 23 -8 7 -15 18
-15 25 0 7 -6 18 -13 24 -11 8 -14 5 -14 -19 0 -23 14 -44 59 -90 32 -33 55
-60 52 -60 -16 0 -67 46 -95 86 -18 24 -39 43 -47 42 -8 -2 -17 2 -19 9 -3 8
5 10 23 7 24 -4 26 -3 14 11 -11 14 -11 18 -1 25 8 4 10 13 7 19 -11 16 -26
13 -20 -4 9 -22 -10 -18 -32 7 -13 14 -14 19 -4 14 13 -6 13 -6 0 6 -17 15
-20 40 -5 48 5 3 16 -7 23 -23 7 -15 18 -25 23 -22 10 7 2 24 -25 60 -14 20
-15 20 -29 1 -13 -17 -16 -14 -55 45 -23 35 -42 69 -42 76 0 7 -5 13 -11 13
-6 0 -8 7 -5 16 3 8 2 12 -3 9 -6 -3 -14 3 -20 12 -6 10 -11 13 -11 8 0 -6 5
-16 12 -23 8 -8 9 -15 2 -22 -7 -7 -16 16 -29 72 -10 46 -20 90 -22 98 -9 31
-1 195 9 205 7 7 8 -6 3 -42 -4 -29 -3 -53 2 -53 5 0 9 -15 10 -32 2 -28 0
-30 -8 -13 -7 14 -8 6 -4 -30 3 -27 6 -59 6 -70 0 -15 2 -16 8 -6 5 8 5 27 1
42 -12 42 3 36 16 -6 6 -19 8 -35 4 -35 -3 0 -5 -14 -2 -30 2 -17 9 -30 14
-30 6 0 8 -6 5 -14 -3 -8 1 -13 11 -12 9 0 17 -3 17 -9 2 -20 39 -84 46 -80 4
3 10 -2 13 -11 4 -10 2 -13 -7 -8 -6 4 -2 -4 9 -17 12 -13 19 -31 16 -39 -4
-13 -3 -13 11 -1 9 7 15 17 12 21 -3 5 -1 11 5 15 5 3 10 1 10 -4 0 -6 0 -13
0 -16 0 -3 7 -13 15 -22 29 -33 95 -127 95 -136 0 -4 -6 -5 -12 -1 -7 5 -1 -8
14 -27 15 -18 31 -33 37 -31 6 1 11 -4 11 -12 0 -8 7 -17 16 -20 8 -3 13 -10
10 -15 -3 -5 1 -14 9 -21 8 -7 12 -17 8 -23 -3 -6 -1 -7 6 -3 6 4 9 13 5 19
-3 7 3 3 13 -8 10 -11 27 -29 38 -39 11 -10 15 -16 8 -12 -6 3 -15 1 -18 -5
-5 -7 1 -9 16 -7 13 2 29 -3 35 -11 6 -7 22 -14 36 -14 20 0 26 -4 23 -18 -3
-14 8 -22 46 -34 27 -9 49 -21 49 -26 0 -5 11 -11 24 -15 17 -4 23 -11 21 -25
-2 -10 1 -22 7 -25 6 -4 8 -3 5 3 -4 6 3 13 15 17 29 7 20 15 -65 60 -37 20
-73 34 -79 30 -7 -4 -8 -3 -4 4 4 7 2 12 -5 12 -7 0 -10 3 -6 6 3 3 32 -4 64
-16 32 -12 63 -23 68 -24 6 -1 15 -4 20 -8 6 -3 19 -2 30 2 15 5 6 10 -40 20
-33 8 -75 20 -92 27 -18 7 -36 13 -40 12 -3 0 -10 7 -16 16 -6 12 -17 15 -35
11 -15 -3 -21 -3 -14 0 15 7 -122 159 -144 159 -7 0 -14 4 -14 8 0 4 -29 44
-65 90 -36 45 -73 99 -82 120 -16 35 -18 36 -25 16 -11 -29 -15 -23 -39 57
-24 80 -25 87 -40 177 -6 37 -15 67 -20 67 -13 0 -23 -24 -11 -28 6 -2 8 -10
5 -17 -2 -8 2 -34 11 -57 9 -24 18 -57 19 -75 1 -17 5 -29 8 -27 9 5 22 -46
14 -54 -3 -3 -5 2 -5 10 0 9 -7 21 -15 28 -9 7 -13 15 -10 18 3 3 0 11 -6 18
-6 8 -9 21 -5 29 4 11 2 14 -6 9 -7 -5 -9 0 -6 14 4 15 2 22 -9 22 -9 0 -14 8
-13 23 1 12 1 33 0 47 -1 23 -2 23 -10 5 -7 -17 -9 -14 -11 15 -1 19 -3 40 -4
45 -2 6 -3 18 -4 28 -1 12 -5 16 -13 11 -10 -6 -10 -5 -1 8 7 8 10 18 6 21 -3
4 -3 7 1 7 14 0 37 -30 31 -40 -4 -6 -3 -24 0 -41 6 -24 9 -28 21 -18 16 13
19 33 4 24 -6 -3 -10 5 -10 18 0 28 22 41 39 24 8 -8 11 -1 10 28 -1 26 -3 32
-6 16 -4 -22 -6 -21 -28 15 -13 21 -21 43 -18 49 3 5 0 4 -7 -2 -11 -10 -11
-16 2 -30 21 -24 32 -63 18 -63 -25 0 -52 38 -48 67 3 15 3 22 1 15 -6 -17
-33 15 -32 38 0 10 3 8 9 -5 7 -17 9 -14 10 15 4 84 11 125 20 128 6 2 10 29
10 61 0 31 7 81 15 111 8 30 17 66 20 80 2 14 9 41 15 60 12 42 12 43 1 36
-14 -9 13 94 37 140 12 23 19 44 15 47 -3 3 8 28 24 54 30 50 57 110 69 153 9
33 43 82 54 75 11 -7 33 22 25 35 -6 9 8 15 28 11 5 -1 6 3 3 8 -8 12 74 82
87 74 6 -3 7 -1 3 5 -7 11 9 25 34 29 22 3 90 32 90 38 0 6 -25 7 -31 1z
m-219 -174 c0 -13 -12 -22 -22 -16 -10 6 -1 24 13 24 5 0 9 -4 9 -8z m-130
-172 c0 -5 -13 -32 -30 -58 -16 -27 -33 -64 -37 -83 -8 -40 -43 -103 -43 -77
0 26 40 128 67 170 12 21 23 42 23 48 0 5 5 10 10 10 6 0 10 -4 10 -10z m2103
-210 c3 -11 2 -18 -3 -15 -4 3 -10 14 -13 25 -3 11 -2 18 3 15 4 -3 10 -14 13
-25z m-2240 -25 c-3 -9 -8 -14 -10 -11 -3 3 -2 9 2 15 9 16 15 13 8 -4z m19
-77 c-2 -35 -15 -103 -28 -153 -13 -49 -24 -110 -24 -134 0 -25 -4 -58 -9 -75
-16 -53 -41 -211 -41 -259 0 -90 -18 -46 -24 61 -4 59 -9 125 -12 147 -5 32
-4 38 7 28 14 -14 39 0 39 21 0 6 -8 2 -16 -9 -16 -19 -16 -19 -12 8 4 22 3
25 -8 16 -24 -20 -17 80 11 166 30 91 40 112 70 145 12 14 28 42 35 63 6 20
13 37 14 37 1 0 0 -28 -2 -62z m2264 -74 c3 -12 3 -27 0 -33 -4 -5 -2 -12 4
-16 5 -3 9 -23 9 -43 l-1 -37 -8 40 c-4 21 -13 41 -19 43 -6 2 -9 7 -6 11 2 5
0 22 -4 39 -8 25 -6 30 5 25 8 -3 17 -16 20 -29z m-39 -26 c-3 -7 -5 -2 -5 12
0 14 2 19 5 13 2 -7 2 -19 0 -25z m61 -106 c12 11 13 -14 8 -182 -6 -202 -12
-256 -27 -266 -5 -3 -9 -20 -9 -38 0 -53 -75 -236 -97 -236 -17 0 -16 10 1 57
8 21 21 63 30 93 9 30 23 68 31 83 26 50 36 142 31 287 -3 78 -7 145 -10 148
-3 3 -6 -3 -6 -13 0 -10 -2 -16 -5 -13 -3 3 0 24 7 46 8 26 16 38 22 32 6 -6
15 -5 24 2z m-59 -358 c-6 -54 -13 -101 -16 -104 -8 -9 0 122 10 167 16 69 18
44 6 -63z m52 -135 c-6 -16 -10 -18 -10 -7 -1 22 12 55 16 42 2 -6 -1 -22 -6
-35z m-2384 -39 c0 -28 -2 -48 -5 -45 -9 9 -12 106 -3 101 4 -3 8 -28 8 -56z
m2327 -181 c-8 -17 -17 -29 -20 -27 -7 8 20 67 28 62 4 -3 1 -19 -8 -35z
m-2190 -101 c-3 -4 -1 -8 5 -8 6 0 20 -19 32 -42 19 -37 19 -41 4 -28 -17 14
-17 13 -7 -5 20 -38 62 -89 62 -76 0 7 5 9 10 6 16 -10 11 -21 -11 -22 -21 -2
-41 24 -80 105 -16 33 -24 41 -31 30 -7 -9 -8 -5 -5 14 2 17 0 25 -6 21 -6 -4
-8 0 -4 10 4 11 1 17 -7 17 -18 0 -28 27 -20 52 5 16 10 12 34 -24 16 -23 26
-46 24 -50z m2149 75 c-7 -2 -13 -9 -13 -14 0 -6 5 -7 10 -4 15 9 12 -5 -9
-44 -17 -32 -19 -33 -25 -13 -8 24 18 82 37 81 9 0 9 -2 0 -6z m-58 -125 l-16
-33 20 25 c14 17 21 20 21 10 -1 -8 -13 -30 -29 -49 -21 -25 -30 -31 -36 -21
-6 9 -4 11 5 5 10 -6 12 -4 7 9 -4 9 -3 15 3 11 5 -3 8 3 8 12 -1 23 21 77 28
70 3 -3 -2 -20 -11 -39z m-1848 -156 c4 -28 -1 -28 -20 2 -15 22 -15 24 0 22
9 -2 18 -12 20 -24z m-137 -14 c0 -6 -7 -5 -15 2 -8 7 -15 17 -15 22 0 6 7 5
15 -2 8 -7 15 -17 15 -22z m260 -92 c24 -25 40 -46 35 -46 -14 1 -46 29 -96
84 -36 41 -39 46 -14 29 17 -12 50 -42 75 -67z m1630 74 c0 -5 -10 -15 -22
-21 -23 -12 -23 -12 -4 10 21 23 26 26 26 11z m-50 -25 c0 -17 -47 -58 -58
-51 -7 4 -6 16 1 35 7 20 17 29 34 29 13 0 23 -6 23 -13z m-1666 -73 c3 -5 -1
-9 -9 -9 -8 0 -12 4 -9 9 3 4 7 8 9 8 2 0 6 -4 9 -8z m56 -77 c7 -8 8 -15 2
-15 -5 0 -15 7 -22 15 -7 8 -8 15 -2 15 5 0 15 -7 22 -15z m1480 -90 c0 -2
-10 -9 -22 -15 -22 -11 -22 -10 -4 4 21 17 26 19 26 11z m-217 -31 c-3 -8 -18
-14 -37 -13 l-31 1 28 12 c15 7 24 16 20 20 -4 4 0 4 9 1 9 -4 14 -13 11 -21z
m-535 -40 c11 -12 11 -14 -2 -14 -9 0 -16 5 -16 10 0 7 -8 7 -22 -1 -16 -9
-23 -9 -26 0 -2 6 -11 11 -20 11 -13 0 -14 2 -4 8 17 11 73 2 90 -14z m652 15
c0 -11 -29 -19 -46 -12 -12 4 -13 8 -3 14 15 9 49 8 49 -2z m-1112 -8 c11 -6
10 -10 -4 -15 -9 -3 -19 -4 -22 -1 -3 3 1 5 9 5 11 0 11 2 -1 10 -8 5 -10 10
-5 10 6 0 16 -4 23 -9z m274 -3 c15 1 29 -2 32 -6 2 -4 -24 -7 -59 -7 -35 0
-61 3 -58 8 2 4 -10 5 -29 2 -25 -4 -29 -3 -18 5 9 6 33 8 60 4 25 -4 57 -7
72 -6z m82 -37 c4 -5 -12 -7 -36 -4 -57 8 -61 13 -10 13 22 0 43 -4 46 -9z
m53 -7 c-3 -3 -12 -4 -19 -1 -8 3 -5 6 6 6 11 1 17 -2 13 -5z"/>
<path d="M420 805 c0 -5 5 -17 10 -25 5 -8 10 -10 10 -5 0 6 -5 17 -10 25 -5
8 -10 11 -10 5z"/>
<path d="M2535 860 c-4 -12 -5 -24 -2 -27 3 -2 8 5 12 17 4 12 5 24 2 27 -3 2
-8 -5 -12 -17z"/>
<path d="M906 2495 c-11 -8 -15 -15 -9 -15 6 0 16 7 23 15 16 19 11 19 -14 0z"/>
<path d="M1100 2495 c-11 -13 -10 -14 4 -9 9 3 16 10 16 15 0 13 -6 11 -20 -6z"/>
<path d="M2015 2501 c-3 -6 -12 -8 -18 -5 -9 5 -9 3 0 -6 9 -10 16 -10 26 -2
10 8 21 7 43 -4 40 -21 85 -65 77 -77 -3 -6 -1 -7 6 -3 9 6 9 12 -1 24 -23 30
-73 72 -85 72 -6 0 -18 3 -26 6 -8 3 -18 0 -22 -5z"/>
<path d="M2210 2505 c0 -2 10 -10 23 -16 20 -11 21 -11 8 4 -13 16 -31 23 -31
12z"/>
<path d="M2175 2471 c-9 -15 6 -40 20 -34 14 5 72 -30 87 -52 5 -7 8 -6 8 2 0
6 -16 21 -35 33 -19 12 -35 25 -35 28 0 12 -39 32 -45 23z"/>
<path d="M844 2462 c-8 -5 -7 -11 4 -22 14 -13 15 -12 9 2 -3 9 -1 19 6 22 7
2 8 5 2 5 -5 0 -15 -3 -21 -7z"/>
<path d="M630 2439 c0 -5 5 -7 10 -4 6 3 10 8 10 11 0 2 -4 4 -10 4 -5 0 -10
-5 -10 -11z"/>
<path d="M600 2440 c-8 -26 -7 -41 2 -32 6 6 8 16 5 24 -3 7 -6 11 -7 8z"/>
<path d="M539 2403 c-13 -14 -18 -23 -11 -19 6 4 12 3 12 -1 0 -5 -6 -15 -12
-22 -11 -10 -10 -11 4 -6 9 4 24 17 32 31 15 22 15 23 -1 17 -16 -6 -16 -5 -4
10 22 27 7 20 -20 -10z"/>
<path d="M764 2418 c-4 -6 -3 -8 4 -4 19 12 24 -15 6 -35 -9 -10 -12 -19 -7
-19 17 0 32 24 30 48 -1 23 -21 30 -33 10z"/>
<path d="M2310 2426 c0 -2 8 -10 18 -17 15 -13 16 -12 3 4 -13 16 -21 21 -21
13z"/>
<path d="M830 2410 c-8 -5 -10 -10 -5 -10 6 0 17 5 25 10 8 5 11 10 5 10 -5 0
-17 -5 -25 -10z"/>
<path d="M2029 2406 c15 -9 20 -16 12 -20 -6 -4 -11 -12 -11 -19 0 -6 6 -2 14
9 12 15 17 17 27 7 7 -7 18 -13 24 -13 5 0 2 5 -8 11 -9 6 -15 14 -12 20 4 5
-2 6 -11 2 -10 -3 -15 -2 -12 3 4 5 -6 10 -20 11 l-27 1 24 -12z"/>
<path d="M2240 2386 c0 -2 8 -10 18 -17 15 -13 16 -12 3 4 -13 16 -21 21 -21
13z"/>
<path d="M2300 2381 c0 -6 4 -13 10 -16 6 -3 7 1 4 9 -7 18 -14 21 -14 7z"/>
<path d="M741 2303 c-33 -37 -59 -69 -56 -71 3 -4 45 40 100 106 48 58 18 34
-44 -35z"/>
<path d="M2187 2349 c7 -7 15 -10 18 -7 3 3 -2 9 -12 12 -14 6 -15 5 -6 -5z"/>
<path d="M2340 2349 c0 -5 -5 -7 -11 -3 -22 13 10 -31 50 -71 42 -40 58 -39
19 2 -12 13 -16 23 -10 23 7 0 12 5 12 11 0 8 -5 7 -15 -1 -13 -11 -18 -10
-29 6 -8 10 -12 24 -9 31 3 7 2 13 -1 13 -3 0 -6 -5 -6 -11z"/>
<path d="M821 2336 c-15 -17 -1 -28 19 -15 11 6 12 9 2 9 -7 0 -10 5 -7 10 9
15 -1 12 -14 -4z"/>
<path d="M2220 2312 c6 -13 14 -21 18 -18 3 4 -2 14 -12 24 -18 16 -18 16 -6
-6z"/>
<path d="M620 2258 c-30 -34 -65 -84 -77 -111 -29 -61 -29 -76 -1 -22 11 22
35 58 52 80 48 61 87 115 84 115 -2 0 -28 -28 -58 -62z"/>
<path d="M675 2285 c-37 -50 -27 -62 13 -15 17 21 28 41 23 44 -5 3 -21 -10
-36 -29z"/>
<path d="M2270 2316 c0 -3 9 -10 20 -16 11 -6 20 -8 20 -6 0 3 -9 10 -20 16
-11 6 -20 8 -20 6z"/>
<path d="M391 2283 c-1 -7 -1 -16 0 -19 0 -4 -5 -11 -13 -15 -10 -7 -10 -9 0
-9 15 0 26 24 19 42 -4 10 -6 10 -6 1z"/>
<path d="M597 2283 c-4 -3 -7 -11 -7 -17 0 -6 5 -5 12 2 6 6 9 14 7 17 -3 3
-9 2 -12 -2z"/>
<path d="M746 2233 c-33 -37 -41 -42 -48 -29 -10 18 -28 21 -28 5 0 -5 5 -7
12 -3 7 5 9 2 6 -8 -12 -29 21 -14 63 28 24 24 41 45 38 48 -2 2 -22 -16 -43
-41z"/>
<path d="M2240 2239 c25 -22 44 -45 42 -52 -2 -7 -1 -9 3 -5 4 4 27 -14 51
-39 24 -25 44 -42 44 -38 0 12 -163 175 -174 175 -6 -1 9 -19 34 -41z"/>
<path d="M566 2234 c-5 -14 -4 -15 9 -4 17 14 19 20 6 20 -5 0 -12 -7 -15 -16z"/>
<path d="M2270 2247 c0 -2 15 -16 33 -33 l32 -29 -29 33 c-28 30 -36 37 -36
29z"/>
<path d="M2450 2232 c0 -12 19 -26 26 -19 2 2 -2 10 -11 17 -9 8 -15 8 -15 2z"/>
<path d="M2335 2207 c10 -15 20 -25 23 -22 3 3 -5 16 -17 28 l-23 22 17 -28z"/>
<path d="M370 2209 c0 -15 18 -19 23 -6 3 8 -1 14 -9 14 -8 0 -14 -4 -14 -8z"/>
<path d="M615 2171 c-14 -23 -30 -39 -34 -36 -5 3 -18 -11 -30 -31 -12 -19
-25 -33 -30 -30 -5 4 -7 -3 -4 -14 3 -12 -1 -22 -10 -26 -9 -3 -13 -13 -9 -26
3 -12 1 -19 -4 -16 -5 4 -10 -5 -11 -18 -5 -52 -7 -63 -13 -62 -19 2 -28 -5
-38 -27 -19 -40 -14 -42 13 -5 14 19 25 30 25 24 0 -5 7 -1 15 9 7 11 11 26 8
35 -5 14 -3 15 8 5 11 -11 9 -21 -11 -60 -14 -27 -24 -54 -23 -60 0 -7 -3 -10
-8 -7 -5 3 -6 -3 -2 -12 4 -11 2 -15 -4 -11 -7 4 -11 -2 -10 -16 0 -12 -3 -42
-7 -67 -4 -25 15 18 43 99 36 104 47 149 41 162 -11 20 7 82 21 73 5 -3 9 -2
8 3 -3 19 2 34 9 29 10 -6 97 113 89 121 -3 3 -17 -14 -32 -36z m-44 -64 c-10
-9 -11 -8 -5 6 3 10 9 15 12 12 3 -3 0 -11 -7 -18z"/>
<path d="M2560 2195 c0 -8 4 -15 10 -15 5 0 7 7 4 15 -4 8 -8 15 -10 15 -2 0
-4 -7 -4 -15z"/>
<path d="M335 2170 c-3 -5 -1 -10 4 -10 6 0 11 5 11 10 0 6 -2 10 -4 10 -3 0
-8 -4 -11 -10z"/>
<path d="M2390 2156 c0 -3 9 -10 20 -16 11 -6 20 -8 20 -6 0 3 -9 10 -20 16
-11 6 -20 8 -20 6z"/>
<path d="M635 2130 c-3 -5 -1 -10 4 -10 6 0 11 5 11 10 0 6 -2 10 -4 10 -3 0
-8 -4 -11 -10z"/>
<path d="M2460 2131 c0 -5 5 -13 10 -16 6 -3 10 -2 10 4 0 5 -4 13 -10 16 -5
3 -10 2 -10 -4z"/>
<path d="M2535 2120 c-3 -5 -1 -10 4 -10 6 0 11 5 11 10 0 6 -2 10 -4 10 -3 0
-8 -4 -11 -10z"/>
<path d="M2440 2105 c17 -21 29 -82 18 -93 -11 -11 1 -44 16 -39 26 9 -7 147
-35 147 -8 0 -7 -5 1 -15z m40 -116 c0 -6 -4 -7 -10 -4 -5 3 -10 11 -10 16 0
6 5 7 10 4 6 -3 10 -11 10 -16z"/>
<path d="M610 2099 c0 -5 5 -7 10 -4 6 3 10 8 10 11 0 2 -4 4 -10 4 -5 0 -10
-5 -10 -11z"/>
<path d="M2593 2063 c13 -20 29 -39 37 -41 7 -3 4 6 -8 18 -12 13 -24 32 -28
42 -3 10 -10 18 -15 18 -5 0 1 -17 14 -37z"/>
<path d="M285 2080 c-3 -5 -1 -10 4 -10 6 0 11 5 11 10 0 6 -2 10 -4 10 -3 0
-8 -4 -11 -10z"/>
<path d="M2401 2073 c7 -12 15 -20 18 -17 3 2 -3 12 -13 22 -17 16 -18 16 -5
-5z"/>
<path d="M296 2014 c-4 -14 -5 -28 -3 -31 3 -2 8 8 11 23 4 14 5 28 3 31 -3 2
-8 -8 -11 -23z"/>
<path d="M2542 1975 c6 -14 15 -25 20 -25 5 0 1 11 -8 25 -9 14 -18 25 -20 25
-2 0 2 -11 8 -25z"/>
<path d="M313 1972 c-3 -12 -10 -19 -15 -16 -6 4 -8 -1 -4 -14 4 -13 1 -22 -9
-25 -8 -4 -12 -13 -9 -21 3 -8 1 -17 -5 -21 -6 -3 -11 -16 -11 -28 0 -17 -2
-19 -9 -8 -10 15 -13 7 -24 -54 -2 -11 -9 -19 -17 -17 -11 3 -11 0 -1 -12 7
-9 11 -23 7 -31 -3 -9 -2 -13 4 -10 5 3 12 28 16 55 8 57 21 65 27 18 3 -28 4
-27 5 10 1 28 7 45 17 49 9 3 15 13 14 22 -1 9 1 25 5 36 5 11 13 33 18 48 6
15 8 31 4 34 -4 4 -9 -3 -13 -15z"/>
<path d="M463 1985 c4 -5 0 -19 -8 -31 -8 -13 -11 -25 -7 -28 5 -3 13 8 19 25
8 21 8 31 0 36 -7 3 -9 2 -4 -2z"/>
<path d="M566 1961 c-10 -11 -16 -26 -14 -34 2 -9 10 -2 20 19 20 39 18 42 -6
15z"/>
<path d="M2495 1930 c3 -5 8 -10 11 -10 2 0 4 5 4 10 0 6 -5 10 -11 10 -5 0
-7 -4 -4 -10z"/>
<path d="M894 1911 c-101 -46 -124 -177 -43 -245 16 -14 74 -39 128 -56 116
-35 144 -59 144 -121 0 -58 -41 -97 -109 -105 -69 -9 -117 14 -141 67 -14 31
-23 39 -45 39 -34 0 -37 -27 -8 -74 32 -53 93 -81 175 -81 118 0 185 59 185
164 0 48 -3 57 -37 91 -31 30 -58 43 -140 69 -75 23 -107 38 -122 57 -30 38
-27 87 7 125 54 60 184 47 214 -22 10 -24 19 -29 46 -29 30 0 33 2 27 23 -29
98 -171 148 -281 98z"/>
<path d="M2480 1880 c0 -5 5 -10 11 -10 5 0 7 5 4 10 -3 6 -8 10 -11 10 -2 0
-4 -4 -4 -10z"/>
<path d="M445 1859 c-4 -6 -5 -12 -2 -15 2 -3 7 2 10 11 7 17 1 20 -8 4z"/>
<path d="M527 1853 c-4 -3 -7 -13 -7 -22 1 -13 3 -13 11 2 11 19 8 33 -4 20z"/>
<path d="M2505 1827 c4 -26 3 -37 -4 -32 -14 8 -3 -25 16 -46 8 -9 13 -20 12
-25 -4 -24 2 -55 10 -50 5 4 5 21 0 43 -6 21 -12 56 -15 78 -3 21 -10 46 -15
55 -7 10 -8 4 -4 -23z"/>
<path d="M1336 1723 c-20 -60 -72 -215 -115 -346 -43 -131 -85 -246 -94 -255
-14 -17 -27 -76 -30 -137 -3 -55 26 -36 48 32 11 34 25 67 30 72 6 6 71 44
145 85 92 51 137 71 141 63 4 -7 16 -64 28 -127 12 -63 24 -128 27 -143 4 -19
11 -27 22 -25 24 5 19 89 -13 214 l-25 99 21 16 c27 20 22 54 -8 53 -19 0 -21
8 -32 118 -7 65 -16 131 -21 146 -4 15 -16 70 -26 122 -28 158 -48 160 -98 13z
m64 24 c0 -5 -4 -5 -10 -2 -5 3 -10 14 -10 23 0 15 2 15 10 2 5 -8 10 -19 10
-23z m25 -244 c14 -89 25 -170 25 -181 0 -16 -29 -36 -126 -88 -86 -46 -129
-75 -135 -91 -5 -13 -13 -23 -19 -23 -12 0 -6 15 17 42 8 9 43 105 78 215 35
109 76 234 91 278 33 93 28 105 69 -152z m75 -212 c0 -5 -6 -14 -14 -20 -16
-13 -32 2 -21 19 8 12 35 13 35 1z"/>
<path d="M415 1781 c-4 -18 -4 -35 -1 -38 3 -4 6 3 6 15 0 11 4 22 10 24 5 2
6 9 1 17 -6 10 -11 5 -16 -18z"/>
<path d="M2416 1765 c4 -8 8 -15 10 -15 2 0 4 7 4 15 0 8 -4 15 -10 15 -5 0
-7 -7 -4 -15z"/>
<path d="M2572 1750 c0 -14 2 -19 5 -12 2 6 2 18 0 25 -3 6 -5 1 -5 -13z"/>
<path d="M2574 1681 c3 -18 6 -43 7 -55 1 -19 2 -18 8 4 5 14 5 30 2 35 -3 6
-6 16 -7 23 -2 8 -6 17 -10 20 -4 4 -4 -8 0 -27z"/>
<path d="M2125 1690 c-12 -19 -75 -214 -75 -231 0 -13 -12 -19 -50 -24 -79
-11 -80 -42 -1 -52 30 -4 41 -10 37 -20 -11 -27 -27 -281 -24 -373 3 -90 4
-95 26 -98 12 -2 24 3 26 10 3 7 7 101 10 208 3 107 9 212 12 232 l6 37 72 11
c91 14 96 16 96 35 0 12 -15 15 -80 15 -44 0 -80 4 -80 8 0 4 13 59 30 122 16
63 30 118 30 123 0 11 -28 9 -35 -3z m-37 -268 c10 -7 8 -12 -5 -25 -25 -21
-53 -7 -34 17 15 18 21 19 39 8z"/>
<path d="M2535 1550 c-4 -39 -5 -73 -2 -76 2 -3 8 27 11 67 4 39 5 73 3 76 -3
2 -8 -28 -12 -67z"/>
<path d="M376 1585 c-3 -9 -6 -22 -5 -28 0 -7 5 -1 10 12 5 13 8 26 5 28 -2 2
-6 -3 -10 -12z"/>
<path d="M353 1465 c0 -8 4 -12 9 -9 4 3 8 9 8 15 0 5 -4 9 -8 9 -5 0 -9 -7
-9 -15z"/>
<path d="M2552 1450 c0 -14 2 -19 5 -12 2 6 2 18 0 25 -3 6 -5 1 -5 -13z"/>
<path d="M401 1414 c0 -11 3 -14 6 -6 3 7 2 16 -1 19 -3 4 -6 -2 -5 -13z"/>
<path d="M171 1394 c0 -11 3 -14 6 -6 3 7 2 16 -1 19 -3 4 -6 -2 -5 -13z"/>
<path d="M1627 1273 c-9 -170 -8 -265 1 -281 17 -26 39 1 60 72 24 81 99 204
141 229 23 13 29 13 54 1 45 -24 63 0 27 36 -46 46 -114 11 -185 -95 -19 -30
-40 -57 -45 -60 -6 -4 -11 19 -12 57 -1 35 -2 70 -4 78 -1 8 -2 32 -3 53 -1
24 -6 37 -14 37 -11 0 -15 -31 -20 -127z m57 -126 c4 4 0 -9 -7 -28 -8 -18
-17 -41 -20 -49 -3 -8 -6 9 -6 39 -1 44 1 51 12 42 8 -6 17 -8 21 -4z"/>
<path d="M2512 1370 c0 -14 2 -19 5 -12 2 6 2 18 0 25 -3 6 -5 1 -5 -13z"/>
<path d="M411 1334 c0 -11 3 -14 6 -6 3 7 2 16 -1 19 -3 4 -6 -2 -5 -13z"/>
<path d="M2531 1299 c-9 -21 -10 -37 -4 -52 9 -19 11 -16 17 26 9 59 5 66 -13
26z"/>
<path d="M171 1284 c0 -11 3 -14 6 -6 3 7 2 16 -1 19 -3 4 -6 -2 -5 -13z"/>
<path d="M2492 1230 c0 -14 2 -19 5 -12 2 6 2 18 0 25 -3 6 -5 1 -5 -13z"/>
<path d="M2516 1180 c-4 -25 -10 -53 -13 -64 -3 -11 -1 -16 5 -12 6 3 12 -2
14 -11 3 -15 5 -14 10 5 3 12 2 20 -2 17 -10 -6 -10 58 0 65 4 3 4 14 0 25 -6
15 -9 10 -14 -25z"/>
<path d="M221 1108 c-1 -16 4 -28 9 -28 12 0 12 8 0 35 -8 18 -9 17 -9 -7z"/>
<path d="M2690 1101 c0 -6 4 -12 8 -15 5 -3 9 1 9 9 0 8 -4 15 -9 15 -4 0 -8
-4 -8 -9z"/>
<path d="M2681 1057 c-6 -8 -8 -17 -4 -20 3 -4 1 -7 -5 -7 -7 0 -12 -4 -12
-10 0 -5 7 -7 16 -3 8 3 13 11 10 18 -2 7 1 18 7 24 6 6 8 11 5 11 -3 0 -11
-6 -17 -13z"/>
<path d="M2435 1020 c-3 -5 -1 -10 4 -10 6 0 11 5 11 10 0 6 -2 10 -4 10 -3 0
-8 -4 -11 -10z"/>
<path d="M2647 983 c-4 -3 -7 -11 -7 -17 0 -6 5 -5 12 2 6 6 9 14 7 17 -3 3
-9 2 -12 -2z"/>
<path d="M2441 964 c0 -11 3 -14 6 -6 3 7 2 16 -1 19 -3 4 -6 -2 -5 -13z"/>
<path d="M257 883 c-4 -3 -7 -11 -7 -17 0 -6 5 -5 12 2 6 6 9 14 7 17 -3 3 -9
2 -12 -2z"/>
<path d="M295 850 c-3 -5 -1 -10 4 -10 6 0 11 5 11 10 0 6 -2 10 -4 10 -3 0
-8 -4 -11 -10z"/>
<path d="M2666 825 c-9 -26 -7 -32 5 -12 6 10 9 21 6 23 -2 3 -7 -2 -11 -11z"/>
<path d="M2578 798 c-17 -26 -50 -119 -44 -125 3 -4 38 77 37 87 0 3 7 16 15
28 9 13 14 26 11 28 -2 3 -11 -6 -19 -18z"/>
<path d="M550 725 c0 -5 11 -23 25 -40 13 -16 24 -25 25 -20 0 6 -11 24 -25
40 -13 17 -24 26 -25 20z"/>
<path d="M2311 692 c-8 -14 -6 -19 5 -19 7 0 12 3 9 5 -3 3 0 11 6 19 8 9 8
13 1 13 -6 0 -16 -8 -21 -18z"/>
<path d="M2255 680 c-3 -5 -2 -10 4 -10 5 0 13 5 16 10 3 6 2 10 -4 10 -5 0
-13 -4 -16 -10z"/>
<path d="M2501 653 c-10 -24 -9 -26 2 -11 8 10 17 15 21 11 4 -4 4 0 0 10 -8
22 -9 22 -23 -10z"/>
<path d="M2228 640 c-26 -24 -22 -35 4 -10 12 11 20 22 17 24 -2 2 -12 -4 -21
-14z"/>
<path d="M2247 610 c-20 -27 -45 -50 -55 -50 -14 0 -15 -2 -2 -10 9 -6 19 -5
29 3 12 10 13 9 2 -13 l-12 -25 22 25 c11 14 25 25 30 25 4 0 14 7 21 15 11
12 11 12 -4 1 -10 -7 -18 -10 -18 -6 0 4 -7 2 -15 -5 -8 -7 -15 -8 -15 -2 0
12 21 30 35 30 6 0 21 15 35 34 14 18 18 27 8 20 -11 -9 -17 -9 -20 -2 -2 6
-20 -12 -41 -40z m33 5 c-7 -9 -15 -13 -18 -10 -3 2 1 11 8 20 7 9 15 13 18
10 3 -2 -1 -11 -8 -20z"/>
<path d="M390 631 c0 -5 5 -13 10 -16 6 -3 10 -2 10 4 0 5 -4 13 -10 16 -5 3
-10 2 -10 -4z"/>
<path d="M2134 619 c-19 -22 -19 -22 3 -10 24 12 39 31 25 31 -5 0 -17 -10
-28 -21z"/>
<path d="M2489 598 c-7 -12 -19 -33 -27 -45 -8 -13 -12 -23 -8 -23 9 0 58 81
53 87 -3 3 -11 -6 -18 -19z"/>
<path d="M515 559 c11 -13 21 -26 22 -28 2 -2 3 2 3 10 0 8 -10 20 -22 28
l-23 14 20 -24z"/>
<path d="M831 533 c12 -15 12 -16 -3 -10 -23 8 -23 0 0 -12 14 -7 18 -6 19 9
1 10 -5 21 -14 24 -14 6 -14 4 -2 -11z"/>
<path d="M2417 543 c-4 -3 -7 -11 -7 -17 0 -6 5 -5 12 2 6 6 9 14 7 17 -3 3
-9 2 -12 -2z"/>
<path d="M2055 510 c-3 -5 -15 -10 -26 -10 -11 0 -18 -4 -15 -9 9 -14 -125
-71 -196 -85 -13 -2 -34 -8 -48 -14 -14 -5 -31 -7 -38 -5 -8 3 -10 -1 -6 -11
4 -10 13 -14 23 -12 9 3 48 13 86 22 39 10 72 20 75 24 3 4 28 18 55 30 28 12
60 31 72 42 12 11 26 17 32 14 7 -4 8 -1 5 8 -7 19 -11 20 -19 6z"/>
<path d="M550 473 c0 -8 51 -35 56 -30 2 2 -10 11 -26 21 -17 9 -30 14 -30 9z"/>
<path d="M890 463 c0 -17 221 -89 234 -75 3 3 6 1 6 -5 0 -5 18 -15 40 -22 22
-7 38 -16 36 -20 -3 -4 0 -8 7 -8 7 -1 35 -4 62 -7 l50 -7 -55 20 c-65 23 -45
28 26 6 62 -19 74 -19 47 0 -12 8 -52 17 -89 19 -38 2 -70 9 -72 15 -2 6 -12
11 -23 11 -10 0 -19 3 -19 8 0 4 -19 7 -41 7 -24 0 -78 13 -125 31 -46 17 -84
29 -84 27z"/>
<path d="M1603 446 c-44 -16 -53 -28 -13 -16 19 5 38 14 44 20 11 11 12 12
-31 -4z"/>
<path d="M1675 450 c-16 -7 -17 -9 -3 -9 9 -1 20 4 23 9 7 11 7 11 -20 0z"/>
<path d="M2350 436 c-49 -44 -76 -78 -57 -70 9 3 17 10 17 15 0 5 5 8 11 7 6
-2 22 14 35 35 28 43 28 44 -6 13z"/>
<path d="M1495 340 c-3 -5 1 -10 9 -10 9 0 16 5 16 10 0 6 -4 10 -9 10 -6 0
-13 -4 -16 -10z"/>
<path d="M1915 340 c-19 -8 -19 -9 3 -9 12 -1 22 4 22 9 0 6 -1 10 -2 9 -2 0
-12 -4 -23 -9z"/>
<path d="M1960 340 c-13 -8 -13 -10 2 -10 9 0 20 5 23 10 8 13 -5 13 -25 0z"/>
<path d="M1540 320 c-24 -8 -24 -8 5 -9 17 0 37 4 45 9 12 8 11 10 -5 9 -11
-1 -31 -5 -45 -9z"/>
<path d="M1070 313 c1 -19 18 -28 55 -30 31 -2 35 0 20 7 -11 5 -31 9 -45 9
-20 1 -22 3 -10 11 13 8 12 10 -2 10 -10 0 -18 -3 -18 -7z"/>
<path d="M1393 313 c9 -2 23 -2 30 0 6 3 -1 5 -18 5 -16 0 -22 -2 -12 -5z"/>
<path d="M1548 258 c6 -6 23 -5 43 0 l34 10 -43 -1 c-25 0 -39 -4 -34 -9z"/>
<path d="M1800 240 l-35 -7 32 -2 c17 0 35 4 38 9 3 6 5 9 3 9 -2 -1 -19 -5
-38 -9z"/>
<path d="M1985 239 c-16 -5 -52 -12 -80 -15 -27 -3 -64 -10 -80 -15 -17 -5
-49 -10 -72 -11 -23 -1 -40 -5 -38 -9 5 -7 -50 -14 -225 -29 -75 -7 -69 -8 56
-6 78 0 137 4 130 8 -6 5 -2 8 12 8 13 0 55 7 95 15 40 8 86 17 102 19 47 7
119 28 130 37 10 10 10 10 -30 -2z"/>
<path d="M1730 229 c0 -5 5 -7 10 -4 6 3 10 8 10 11 0 2 -4 4 -10 4 -5 0 -10
-5 -10 -11z"/>
<path d="M1176 182 c-2 -4 13 -9 34 -9 51 -2 60 11 9 14 -21 1 -40 -1 -43 -5z"/>
<path d="M1350 170 c-12 -8 -12 -10 2 -15 9 -4 25 -5 35 -2 14 4 13 5 -5 6
-13 0 -20 6 -17 11 8 12 4 12 -15 0z"/>
<path d="M1775 160 l-30 -8 27 -1 c15 0 30 4 33 9 3 6 5 9 3 9 -2 -1 -16 -5
-33 -9z"/>
<path d="M1200 147 c9 -9 198 -39 212 -34 7 3 0 6 -17 7 -26 1 -27 3 -10 10
14 6 -2 9 -51 9 -39 1 -87 4 -105 7 -19 4 -32 4 -29 1z"/>
<path d="M1718 143 c7 -3 16 -2 19 1 4 3 -2 6 -13 5 -11 0 -14 -3 -6 -6z"/>
<path d="M1433 133 c9 -2 25 -2 35 0 9 3 1 5 -18 5 -19 0 -27 -2 -17 -5z"/>
<path d="M1465 111 c-6 -11 13 -26 22 -17 4 3 1 6 -6 6 -7 0 -9 5 -6 10 3 6 4
10 1 10 -3 0 -7 -4 -11 -9z"/>
<path d="M1518 93 c7 -3 16 -2 19 1 4 3 -2 6 -13 5 -11 0 -14 -3 -6 -6z"/>
<path d="M1755 80 c-7 -12 2 -12 30 0 19 8 19 9 -2 9 -12 1 -25 -3 -28 -9z"/>
<path d="M1748 53 c7 -3 16 -2 19 1 4 3 -2 6 -13 5 -11 0 -14 -3 -6 -6z"/>
</g>
</svg>
